<svg width="758.69648" height="627.92216" xmlns="http://www.w3.org/2000/svg">
 <title>activity_tracker</title>

 <g>
  <title>background</title>
  <rect fill="none" id="canvas_background" height="629.92216" width="760.69648" y="-1" x="-1"/>
 </g>
 <g>
  <title>Layer 1</title>
  <path id="svg_1" fill="#3f3d56" d="m56.206607,590.187075c-0.2295,-0.375 -5.64063,-9.41015 -7.5166,-28.17187c-1.72071,-17.21289 -0.61426,-46.22656 14.43261,-86.69824c28.50586,-76.6709 -6.56933,-138.53321 -6.92773,-139.14942l1.73047,-1.0039c0.09082,0.15625 9.1416,15.92871 14.48828,41.04394a179.06113,179.06113 0 0 1 -7.416,99.80664c-28.457,76.54 -7.30078,112.77344 -7.084,113.13086l-1.70703,1.04199z"/>
  <circle id="svg_2" fill="#597bf5" r="13" cy="318.665593" cx="45.060113"/>
  <circle id="svg_3" fill="#3f3d56" r="13" cy="366.665593" cx="86.060113"/>
  <circle id="svg_4" fill="#597bf5" r="13" cy="398.665593" cx="58.060113"/>
  <circle id="svg_5" fill="#597bf5" r="13" cy="425.665593" cx="92.060113"/>
  <circle id="svg_6" fill="#3f3d56" r="13" cy="467.665593" cx="48.060113"/>
  <path id="svg_7" fill="#3f3d56" d="m64.060117,590.665595s-13,-32 26,-56l-26,56z"/>
  <path id="svg_8" fill="#3f3d56" d="m48.072137,590.085125s-5.91642,-34.02934 -51.7085,-33.73768l51.7085,33.73768z"/>
  <path id="svg_10" fill="#2f2e41" d="m228.781507,-2.345155l0.00009,0c33.656,0 60.9396,30.27879 60.9396,67.62956l0,47.45456l-14.59484,0l-8.44959,-17.58229l2.11242,17.58229l-93.81006,0l-7.68145,-15.9839l1.92034,15.9839l-10.562,0l0,-37.26037c0,-42.9808 31.39626,-77.82375 70.12549,-77.82375z"/>
  <path id="svg_11" fill="#a0616a" d="m332.208677,82.292925l-15.8745,-54.62733s-10.51214,-33.99959 -28.01919,-33.23622s10.72473,41.25554 10.72473,41.25554l12.24158,33.19768l2.61839,12.4443l18.30899,0.96603z"/>
  <path id="svg_12" fill="#a0616a" d="m267.168087,207.416225l14.82779,31.00345l-59.311,40.43928l-31.00345,-26.95952s2.69595,-18.87166 -5.3919,-25.61154s80.87856,-18.87167 80.87856,-18.87167z"/>
  <path id="svg_13" fill="#a0616a" d="m250.992377,84.750405s-20.21964,29.65547 -17.52369,33.6994s-47.17916,-8.08786 -47.17916,-8.08786s25.61154,-33.6994 25.61154,-43.13523l39.09131,17.52369z"/>
  <path id="svg_14" opacity="0.2" d="m250.992377,84.750405s-20.21964,29.65547 -17.52369,33.6994s-47.17916,-8.08786 -47.17916,-8.08786s25.61154,-33.6994 25.61154,-43.13523l39.09131,17.52369z"/>
  <circle id="svg_15" fill="#a0616a" r="31.700979" cy="56.951343" cx="237.990523"/>
  <path id="svg_16" fill="#3f3d56" d="m195.725357,84.750405l47.17916,18.87166l0,10.78381s29.65548,-4.04393 36.39536,0s17.52369,33.6994 17.52369,33.6994s26.95952,40.43929 17.52369,44.48321s-26.95952,8.08786 -33.6994,17.52369s-57.963,10.78381 -57.963,10.78381s-18.87166,5.39191 -26.95952,13.47976s-24.26357,0 -24.26357,0l-8.08786,-130.75368l25.61155,-8.08785l6.7399,-10.78381z"/>
  <path id="svg_17" fill="#3f3d56" d="m272.559997,119.797785l14.82774,-4.04393s22.91559,-4.04393 22.91559,-6.73988s-2.69595,-5.39191 0,-5.39191s8.08786,0 5.3919,-4.04393s1.348,-10.78381 -4.04392,-13.47976s-9.43584,-4.04393 -6.73989,-5.3919s-6.73988,-22.9156 -6.73988,-22.9156l8.08786,-4.04392l9.43583,14.82773l1.348,-20.21964l14.82774,-2.69595l5.3919,24.26357s26.95952,35.04738 8.08786,53.919s-55.267,33.69941 -55.267,33.69941l-17.52373,-37.74329z"/>
  <path id="svg_18" fill="#2f2e41" d="m272.559997,231.679795l9.43583,-5.3919s33.6994,39.0913 33.6994,157.7132s-6.73988,172.54094 -10.78381,171.193s-26.95952,8.08786 -31.00345,4.04393s-31.00345,-200.84843 -31.00345,-200.84843s-84.92249,203.54439 -98.40225,203.54439s-35.04739,-4.04397 -35.04739,-12.13183s40.43928,-115.92594 40.43928,-115.92594s25.61156,-188.71662 37.74334,-190.06462l4.34811,-2.64788l32.04727,21.51953l48.52712,-31.00345z"/>
  <path id="svg_19" fill="#2f2e41" d="m281.995877,555.194055l12.13179,0s10.7838,10.78381 14.82773,36.39536s8.08786,41.78726 -9.43583,41.78726s-28.3075,-4.04393 -26.95952,-13.47976s-2.69595,-13.47976 -2.69595,-13.47976s-6.73988,-12.13179 -5.39191,-18.87167s5.39191,-28.3075 5.39191,-28.3075l12.13178,-4.04393z"/>
  <path id="svg_20" fill="#2f2e41" d="m143.154287,557.890015s13.47976,35.04737 4.04393,43.13523s-13.47976,9.43583 -13.47976,9.43583s-13.47976,2.696 -14.82774,6.73988s-20.21964,18.87164 -37.74333,10.78381s-6.73988,-25.61154 -6.73988,-25.61154l40.43929,-49.87512s14.82773,2.696 14.82773,5.39191s13.47976,0 13.47976,0z"/>
  <path id="svg_21" fill="#a0616a" d="m213.150447,267.795435a25.96656,25.96656 0 0 1 12.68048,-6.4215l-1.35413,6.35518c-0.38556,1.80948 -0.76512,3.7311 -0.14268,5.47335c1.08889,3.04786 4.6617,4.27105 7.79134,5.096c3.53611,0.932 7.568,2.27829 8.86,5.69935c1.10273,2.92 -0.30914,6.172 -2.0299,8.77618a36.03269,36.03269 0 0 1 -5.68486,6.66824c-3.90892,3.58926 -9.283,6.39762 -14.39766,4.98257a30.49381,30.49381 0 0 1 -4.43472,-1.88944c-3.66075,-1.67191 -7.64044,-2.58874 -11.23907,-4.39048c-7.34847,-3.67919 -12.40028,-10.63757 -17.15836,-17.33811a3.36184,3.36184 0 0 1 -0.892,-2.49543a3.13808,3.13808 0 0 1 0.57649,-1.12334c2.75311,-3.881 8.63386,-11.25963 13.11025,-6.2369c1.40836,1.58025 2.50848,3.17732 4.84279,3.18792c4.00037,0.0181 6.84314,-3.90543 9.47203,-6.34359z"/>
  <path id="svg_22" fill="#3f3d56" d="m172.809767,106.318015l-9.43584,-2.696s-17.52368,0 -22.91559,26.95952s-12.13178,111.882 -5.3919,125.36178s40.43928,41.78728 40.43928,41.78728l26.95952,-25.61155l-16.17571,-16.17571s-4.04393,1.348 -4.04393,-4.04393s5.3919,-2.69595 0,-5.3919s-4.04393,1.348 -5.3919,-2.696s-4.04393,-137.49349 -4.04393,-137.49349z"/>
  <path id="svg_23" fill="#2f2e41" d="m210.387017,18.150485c5.45075,-7.01845 13.49018,-11.46393 22.46474,-11.46393l1.06582,0c20.54994,0 37.20886,18.59532 37.20886,41.53385l0,0.00008l-6.88574,0l-1.112,-8.46437l-1.63046,8.46437l-40.83896,0l-3.42153,-7.161l0.85541,7.161l-8.03419,0q-5.62355,27.928 16.16023,55.856l-13.686,0l-6.843,-14.322l1.71072,14.322l-26.08896,0l-5.13225,-32.94079c0,-24.66962 14.33376,-45.58895 34.20731,-52.98521z"/>
  <path id="svg_24" fill="#3f3d56" d="m590.102696,0.000002c-92.916,0 -168.497,75.581 -168.497,168.497a167.593,167.593 0 0 0 14.77384,68.98941c26.40681,58.61 85.36727,99.50761 153.72317,99.50761a168.5905,168.5905 0 0 0 168.497,-168.497c0.00005,-92.91594 -75.59452,-168.49702 -168.49701,-168.49702zm139.40766,236.23281a155.1752,155.1752 0 0 1 -139.40766,87.28146c-65.68685,0 -121.96485,-41.07288 -144.48956,-98.88751a153.87653,153.87653 0 0 1 -10.52769,-56.12975c0,-85.47521 69.54212,-155.01725 155.01725,-155.01725s155.01725,69.542 155.01725,155.01725a153.93454,153.93454 0 0 1 -15.60959,67.7358z"/>
  <path id="svg_25" fill="#597bf5" d="m737.652186,249.793452a168.606,168.606 0 0 1 -147.54949,87.20063c-68.3559,0 -127.31636,-40.89763 -153.72317,-99.50761q4.34715,-6.65222 9.23361,-12.85966c22.52471,57.81463 78.80271,98.88751 144.48956,98.88751a155.1752,155.1752 0 0 0 139.40766,-87.28151q4.36752,6.5714 8.14183,13.56064z"/>
  <path id="svg_26" fill="#597bf5" d="m552.124666,183.908472a19.77651,19.77651 0 1 1 -13.87092,5.80713a19.51456,19.51456 0 0 1 13.87092,-5.80713m0,-8.42485a28.08785,28.08785 0 1 0 28.07281,28.10289a28.16118,28.16118 0 0 0 -28.07281,-28.10288l0,-0.00001zm58.52262,-40.16849a9.57994,9.57994 0 0 0 9.6284,-9.6284a9.47826,9.47826 0 0 0 -9.56822,-9.56823a9.59855,9.59855 0 1 0 -0.06018,19.19663zm20.12939,48.59333a19.77653,19.77653 0 1 1 -13.87092,5.80713a19.51457,19.51457 0 0 1 13.87092,-5.80713m0,-8.42485a28.07281,28.07281 0 1 0 28.0728,28.0728a28.16118,28.16118 0 0 0 -28.0728,-28.07279l0,-0.00001z"/>
  <path id="svg_27" fill="#597bf5" d="m625.150076,154.632082l-14.44261,0l-8.87618,-18.08335a9.41357,9.41357 0 0 0 -14.89393,-1.98585l-21.5736,20.79136a9.79726,9.79726 0 0 0 -2.79825,6.73988c0,5.23544 3.79118,7.101 5.56642,8.15406c13.69038,7.88325 18.50458,8.75583 18.50458,12.69746l0,19.82844a4.8142,4.8142 0 0 0 9.6284,0l0,-27.07984c0,-3.97171 -9.147,-7.2213 -14.53287,-11.43372l14.71341,-15.49571c5.6266,8.57529 8.21422,15.49571 11.43372,15.49571l17.27095,0a4.8142,4.8142 0 1 0 0,-9.6284l-0.00004,-0.00004z"/>
 </g>
</svg>